<?xml version="1.0" encoding="UTF-8" standalone="no" ?>
<!DOCTYPE svg PUBLIC "-//W3C//DTD SVG 1.1//EN" "http://www.w3.org/Graphics/SVG/1.1/DTD/svg11.dtd">
<svg xmlns="http://www.w3.org/2000/svg" xmlns:xlink="http://www.w3.org/1999/xlink" version="1.1" width="1280" height="1024" viewBox="0 0 1280 1024" xml:space="preserve">
<desc>Created with Fabric.js 4.4.0</desc>
<defs>
</defs>
<g transform="matrix(1 0 0 1 640 512)" id="background-logo"  >
<rect style="stroke: none; stroke-width: 0; stroke-dasharray: none; stroke-linecap: butt; stroke-dashoffset: 0; stroke-linejoin: miter; stroke-miterlimit: 4; fill: rgb(255,255,255); fill-opacity: 0; fill-rule: nonzero; opacity: 1;"  paint-order="stroke"  x="-640" y="-512" rx="0" ry="0" width="1280" height="1024" />
</g>
<g transform="matrix(1.9211538461538462 0 0 1.9211538461538462 640 399.02654578104796)" id="logo-logo"  >
<g style=""  paint-order="stroke"   >
		<g transform="matrix(0.10189524688962867 0 0 -0.10189524688962867 -26.735274878900782 0)"  >
<path style="stroke: none; stroke-width: 1; stroke-dasharray: none; stroke-linecap: butt; stroke-dashoffset: 0; stroke-linejoin: miter; stroke-miterlimit: 4; fill: rgb(16,65,112); fill-rule: nonzero; opacity: 1;"  paint-order="stroke"  transform=" translate(-646.35, -820.945013414845)" d="M 1292.7 1272.78 C 1218.48 1335.21 1128.67 1379.96 1030.0700000000002 1400.35 L 928.1480000000001 1502.27 C 922.1050000000001 1508.32 915.5660000000001 1513.58 908.7230000000002 1518.52 C 882.6020000000002 1537 851.8630000000002 1546.55 821.1290000000001 1546.55 C 812.8480000000002 1546.55 804.5660000000001 1545.75 796.2930000000001 1544.32 C 766.1880000000001 1539.3899999999999 737.3630000000002 1525.36 714.1090000000002 1502.27 L 139.824 927.992 C 111.31600000000002 899.3159999999999 95.54690000000002 861.422 95.54690000000002 820.961 C 95.54690000000002 780.523 111.31600000000002 742.602 139.824 713.9490000000001 L 714.109 139.66 C 737.363 116.57 766.188 102.55099999999999 796.293 97.6094 L 821.77 72.1289 C 847.25 46.6602 877.027 28.0195 908.723 16.0781 C 880.531 5.41016 850.914 0 821.129 0 C 757.898 0 694.684 24.0391 646.582 72.1289 L 72.293 646.422 C 25.6367 693.082 0 755.043 0 820.961 C 0 886.895 25.6367 948.852 72.293 995.512 L 646.582 1569.8 C 717.297 1640.67 820.645 1659.1399999999999 908.723 1625.86 C 940.414 1613.9099999999999 970.211 1595.28 995.68 1569.8 L 1021.17 1544.32 L 1292.6999999999998 1272.78" stroke-linecap="round" />
</g>
		<g transform="matrix(0.10189524688962867 0 0 -0.10189524688962867 7.009017400173377 17.716255025518024)"  >
<path style="stroke: none; stroke-width: 1; stroke-dasharray: none; stroke-linecap: butt; stroke-dashoffset: 0; stroke-linejoin: miter; stroke-miterlimit: 4; fill: rgb(16,65,112); fill-rule: nonzero; opacity: 1;"  paint-order="stroke"  transform=" translate(-977.5164999999998, -647.0776784182679)" d="M 1642.26 820.961 C 1642.26 755.043 1616.6299999999999 693.082 1569.98 646.422 L 1292.7 369.148 L 1021.17 97.6094 C 982.457 91.26169999999999 941.852 99.8398 908.723 123.41 C 915.5659999999999 128.352 922.1049999999999 133.602 928.1479999999999 139.66 L 1030.07 241.59 C 990.9019999999999 233.461 950.2769999999999 229.16 908.5629999999999 229.16 C 867.0039999999999 229.16 826.5429999999999 233.46099999999998 787.3669999999998 241.59 C 689.5859999999998 261.648 600.3949999999999 305.77 526.5079999999998 367.40999999999997 L 448.6289999999998 445.28099999999995 C 387.4729999999998 519.012 343.9879999999998 607.559 324.4099999999998 704.703 C 316.7579999999998 742.289 312.7729999999998 781.156 312.7729999999998 820.961 C 312.7729999999998 860.7810000000001 316.7579999999998 899.6410000000001 324.4099999999998 937.227 L 569.1839999999997 1182.01 L 570.3049999999997 1181.37 C 473.148 1091.23 412.148 963.027 412.148 820.961 C 412.148 549.109 634.801 327.91 908.5630000000001 327.91 C 1045.8400000000001 327.91 1170.39 383.48 1260.38 473.309 L 1261.17 472.672 L 1492.72 704.223 L 1502.43 713.949 C 1530.95 742.602 1546.71 780.5229999999999 1546.71 820.961 C 1546.71 861.422 1530.95 899.316 1502.43 927.992 L 1492.72 937.711 C 1472.97 1035.49 1428.8600000000001 1124.52 1366.91 1198.57 L 1569.98 995.512 C 1616.63 948.852 1642.26 886.895 1642.26 820.961" stroke-linecap="round" />
</g>
		<g transform="matrix(0.10189524688962867 0 0 -0.10189524688962867 -7.027205701743242 -17.828660928992804)"  >
<path style="stroke: none; stroke-width: 1; stroke-dasharray: none; stroke-linecap: butt; stroke-dashoffset: 0; stroke-linejoin: miter; stroke-miterlimit: 4; fill: rgb(59,146,227); fill-rule: nonzero; opacity: 1;"  paint-order="stroke"  transform=" translate(-839.7650000000001, -995.9154999999998)" d="M 1504.35 820.961 C 1504.35 780.992 1500.37 741.969 1492.7199999999998 704.223 L 1261.1699999999998 472.67199999999997 L 1260.3799999999999 473.30899999999997 C 1349.7099999999998 562.5 1405.1299999999999 685.4449999999999 1405.1299999999999 820.961 C 1405.1299999999999 1092.83 1182.33 1314.03 908.5629999999999 1314.03 C 777.9689999999998 1314.03 659.0079999999998 1263.55 570.3049999999998 1181.37 L 569.1839999999999 1182.01 L 324.40999999999985 937.227 L 315.00399999999985 927.992 C 286.50399999999985 899.3159999999999 270.72699999999986 861.422 270.72699999999986 820.961 C 270.72699999999986 780.523 286.50399999999985 742.602 315.00399999999985 713.9490000000001 L 324.40999999999985 704.7030000000001 C 343.988 607.559 387.473 519.012 448.629 445.281 L 247.484 646.422 C 200.82 693.082 175.18 755.043 175.18 820.961 C 175.18 886.895 200.82 948.852 247.484 995.512 L 448.46900000000005 1196.6599999999999 L 526.508 1274.6999999999998 L 796.2930000000001 1544.3199999999997 C 804.5660000000001 1545.7499999999998 812.8480000000001 1546.5499999999997 821.1290000000001 1546.5499999999997 C 851.8630000000002 1546.5499999999997 882.6020000000001 1536.9999999999998 908.7230000000002 1518.5199999999998 C 901.8750000000002 1513.5799999999997 895.3480000000002 1508.3199999999997 889.2970000000001 1502.2699999999998 L 787.3670000000002 1400.3499999999997 C 826.5430000000002 1408.4699999999996 867.1520000000002 1412.6099999999997 908.5630000000002 1412.6099999999997 C 950.2770000000003 1412.6099999999997 990.9020000000003 1408.3199999999997 1030.0700000000002 1400.3499999999997 C 1128.67 1379.9599999999996 1218.4800000000002 1335.2099999999996 1292.7000000000003 1272.7799999999997 L 1366.9100000000003 1198.5699999999997 C 1428.8600000000004 1124.5199999999998 1472.9700000000003 1035.4899999999998 1492.7200000000003 937.7109999999998 C 1500.3700000000003 899.9569999999998 1504.3500000000004 860.9409999999998 1504.3500000000004 820.9609999999998" stroke-linecap="round" />
</g>
		<g transform="matrix(0.10189524688962867 0 0 -0.10189524688962867 26.824331324682305 0)"  >
<path style="stroke: none; stroke-width: 1; stroke-dasharray: none; stroke-linecap: butt; stroke-dashoffset: 0; stroke-linejoin: miter; stroke-miterlimit: 4; fill: rgb(59,146,227); fill-rule: nonzero; opacity: 1;"  paint-order="stroke"  transform=" translate(-1171.984, -820.9450134148451)" d="M 1817.46 820.961 C 1817.46 755.043 1791.81 693.082 1745.15 646.422 L 1170.86 72.1289 C 1122.77 24.0391 1059.54 0 996.313 0 C 966.527 0 936.898 5.41016 908.723 16.0781 C 877.027 28.0195 847.25 46.6602 821.77 72.1289 L 526.508 367.41 C 600.395 305.77 689.586 261.648 787.367 241.59 L 889.297 139.66 C 895.3480000000001 133.602 901.875 128.352 908.7230000000001 123.41 C 941.8520000000001 99.8398 982.4570000000001 91.26169999999999 1021.1700000000001 97.6094 C 1051.25 102.55099999999999 1080.0800000000002 116.57 1103.3400000000001 139.66 L 1677.63 713.949 C 1706.13 742.602 1721.9 780.5229999999999 1721.9 820.961 C 1721.9 861.422 1706.13 899.316 1677.63 927.992 L 1103.3400000000001 1502.27 C 1080.0800000000002 1525.36 1051.2500000000002 1539.3899999999999 1021.1700000000002 1544.32 L 995.6800000000002 1569.8 C 970.2110000000001 1595.28 940.4140000000002 1613.9099999999999 908.7230000000002 1625.86 C 996.7930000000001 1659.1399999999999 1100.14 1640.6699999999998 1170.8600000000001 1569.8 L 1745.15 995.512 C 1791.8100000000002 948.852 1817.46 886.895 1817.46 820.961" stroke-linecap="round" />
</g>
		<g transform="matrix(0.10189524688962867 0 0 -0.10189524688962867 -42.91435502290636 42.24571977972556)"  >
<path style="stroke: none; stroke-width: 1; stroke-dasharray: none; stroke-linecap: butt; stroke-dashoffset: 0; stroke-linejoin: miter; stroke-miterlimit: 4; fill: rgb(59,146,227); fill-rule: nonzero; opacity: 1;"  paint-order="stroke"  transform=" translate(-487.56850000000003, -406.3455)" d="M 526.508 367.41 L 448.629 445.281 C 472.02700000000004 416.93 498.15200000000004 390.98 526.508 367.41" stroke-linecap="round" />
</g>
		<g transform="matrix(0.10189524688962867 0 0 -0.10189524688962867 42.905541084050355 -42.25901437562672)"  >
<path style="stroke: none; stroke-width: 1; stroke-dasharray: none; stroke-linecap: butt; stroke-dashoffset: 0; stroke-linejoin: miter; stroke-miterlimit: 4; fill: rgb(59,146,227); fill-rule: nonzero; opacity: 1;"  paint-order="stroke"  transform=" translate(-1329.805, -1235.675)" d="M 1366.91 1198.57 L 1292.7 1272.78 C 1319.6100000000001 1250.33 1344.46 1225.48 1366.91 1198.57" stroke-linecap="round" />
</g>
</g>
</g>
<g transform="matrix(1.9211538461538462 0 0 1.9211538461538462 640.7825700120193 658.1867062304998)" id="text-logo"  >
<g style=""  paint-order="stroke"   >
		<g transform="matrix(1 0 0 1 0 0)" id="text-logo-path-0"  >
<path style="stroke: none; stroke-width: 0; stroke-dasharray: none; stroke-linecap: butt; stroke-dashoffset: 0; stroke-linejoin: miter; stroke-miterlimit: 4; fill: rgb(16,65,112); fill-rule: nonzero; opacity: 1;"  paint-order="stroke"  transform=" translate(-114.83, 17.035)" d="M 1.88 -16.22 L 1.88 -16.22 L 1.88 -18.73 Q 1.88 -26.67 5.12 -30.56 Q 8.37 -34.45 15.45 -34.45 L 15.45 -34.45 Q 22.43 -34.45 25.73 -30.53 Q 29.04 -26.6 29.04 -18.68 L 29.04 -18.68 L 29.04 -16.08 Q 29.04 -7.45 25.79 -3.59 Q 22.55 0.28 15.45 0.28 L 15.45 0.28 Q 8.25 0.28 5.06 -3.59 Q 1.88 -7.45 1.88 -16.22 Z M 8.55 -18 L 8.55 -16.22 Q 8.58 -14.88 8.61 -13.97 Q 8.65 -13.05 8.81 -11.86 Q 8.98 -10.66 9.25 -9.86 Q 9.52 -9.05 10.03 -8.19 Q 10.55 -7.34 11.26 -6.83 Q 11.98 -6.33 13.03 -6 Q 14.09 -5.67 15.45 -5.67 L 15.45 -5.67 Q 16.76 -5.67 17.8 -5.99 Q 18.84 -6.3 19.56 -6.82 Q 20.27 -7.34 20.8 -8.16 Q 21.33 -8.98 21.62 -9.82 Q 21.91 -10.66 22.09 -11.81 Q 22.27 -12.96 22.31 -13.95 Q 22.36 -14.93 22.36 -16.22 L 22.36 -16.22 L 22.36 -18 Q 22.36 -19.59 22.27 -20.79 Q 22.17 -21.98 21.93 -23.26 Q 21.68 -24.54 21.2 -25.43 Q 20.72 -26.32 19.97 -27.06 Q 19.22 -27.8 18.08 -28.16 Q 16.95 -28.52 15.45 -28.52 L 15.45 -28.52 Q 14.13 -28.52 13.1 -28.23 Q 12.07 -27.94 11.36 -27.45 Q 10.64 -26.95 10.13 -26.17 Q 9.61 -25.38 9.3 -24.55 Q 9 -23.72 8.84 -22.57 Q 8.67 -21.42 8.61 -20.39 Q 8.55 -19.36 8.55 -18 L 8.55 -18 Z M 50.18 0 L 43.53 0 L 43.53 -34.17 L 49.95 -34.17 L 63.96 -11.81 L 63.96 -34.17 L 70.64 -34.17 L 70.64 -3.45 Q 70.64 -1.88 69.68 -0.75 Q 68.72 0.38 67.41 0.38 L 67.41 0.38 Q 66.75 0.38 66.19 0.25 Q 65.63 0.12 64.89 -0.23 Q 64.15 -0.59 63.41 -1.41 Q 62.67 -2.23 61.99 -3.45 L 61.99 -3.45 L 50.18 -21.94 L 50.18 0 Z M 86.65 -9.02 L 86.65 -9.02 L 86.65 -34.17 L 109.15 -34.17 L 109.15 -28.22 L 93.33 -28.22 L 93.33 -20.2 L 104.42 -20.2 L 103.93 -14.25 L 93.33 -14.25 L 93.33 -9.52 Q 93.33 -7.48 94.25 -6.71 Q 95.16 -5.95 97.55 -5.95 L 97.55 -5.95 L 109.15 -5.95 L 109.15 0 L 97.06 0 Q 91.29 0 88.97 -1.98 Q 86.65 -3.96 86.65 -9.02 Z M 124.81 -8.98 L 124.81 -8.98 L 124.81 -34.17 L 138.1 -34.17 Q 143.87 -34.17 147.13 -30.91 L 147.13 -30.91 Q 147.83 -30.21 148.37 -29.41 Q 148.91 -28.62 149.27 -27.9 Q 149.63 -27.19 149.88 -26.24 Q 150.13 -25.29 150.25 -24.57 Q 150.38 -23.86 150.45 -22.77 Q 150.52 -21.68 150.54 -21 Q 150.55 -20.32 150.57 -19.1 Q 150.59 -17.88 150.59 -17.23 L 150.59 -17.23 L 150.64 -13.55 Q 150.55 -11.86 150.41 -10.7 Q 150.27 -9.54 149.91 -8.13 Q 149.56 -6.73 148.87 -5.52 Q 148.18 -4.31 147.13 -3.26 L 147.13 -3.26 Q 145.51 -1.64 142.98 -0.82 Q 140.45 0 137.63 0 L 137.63 0 Q 133.86 0 131.45 -0.45 Q 129.03 -0.89 127.52 -1.98 Q 126.01 -3.07 125.41 -4.72 Q 124.81 -6.38 124.81 -8.98 Z M 131.49 -28.22 L 131.49 -9.3 Q 131.49 -7.38 132.78 -6.67 Q 134.07 -5.95 137.49 -5.95 L 137.49 -5.95 Q 140.73 -5.95 142.49 -8.06 L 142.49 -8.06 Q 143.38 -9.16 143.65 -11.12 Q 143.91 -13.08 143.91 -17.23 L 143.91 -17.23 Q 143.91 -21.33 143.65 -23.17 Q 143.38 -25.01 142.49 -26.11 L 142.49 -26.11 Q 140.73 -28.22 137.49 -28.22 L 137.49 -28.22 L 131.49 -28.22 Z M 163.44 -16.22 L 163.44 -16.22 L 163.44 -18.73 Q 163.44 -26.67 166.69 -30.56 Q 169.93 -34.45 177.01 -34.45 L 177.01 -34.45 Q 184 -34.45 187.3 -30.53 Q 190.61 -26.6 190.61 -18.68 L 190.61 -18.68 L 190.61 -16.08 Q 190.61 -7.45 187.36 -3.59 Q 184.11 0.28 177.01 0.28 L 177.01 0.28 Q 169.82 0.28 166.63 -3.59 Q 163.44 -7.45 163.44 -16.22 Z M 170.12 -18 L 170.12 -16.22 Q 170.14 -14.88 170.18 -13.97 Q 170.21 -13.05 170.38 -11.86 Q 170.54 -10.66 170.81 -9.86 Q 171.08 -9.05 171.6 -8.19 Q 172.11 -7.34 172.83 -6.83 Q 173.54 -6.33 174.6 -6 Q 175.65 -5.67 177.01 -5.67 L 177.01 -5.67 Q 178.32 -5.67 179.37 -5.99 Q 180.41 -6.3 181.12 -6.82 Q 181.84 -7.34 182.37 -8.16 Q 182.89 -8.98 183.19 -9.82 Q 183.48 -10.66 183.66 -11.81 Q 183.83 -12.96 183.88 -13.95 Q 183.93 -14.93 183.93 -16.22 L 183.93 -16.22 L 183.93 -18 Q 183.93 -19.59 183.83 -20.79 Q 183.74 -21.98 183.49 -23.26 Q 183.25 -24.54 182.77 -25.43 Q 182.28 -26.32 181.53 -27.06 Q 180.78 -27.8 179.65 -28.16 Q 178.51 -28.52 177.01 -28.52 L 177.01 -28.52 Q 175.7 -28.52 174.67 -28.23 Q 173.64 -27.94 172.92 -27.45 Q 172.21 -26.95 171.69 -26.17 Q 171.18 -25.38 170.87 -24.55 Q 170.57 -23.72 170.4 -22.57 Q 170.24 -21.42 170.18 -20.39 Q 170.12 -19.36 170.12 -18 L 170.12 -18 Z M 211.94 -28.22 L 202.82 -28.22 L 202.82 -34.17 L 227.78 -34.17 L 227.78 -28.22 L 218.62 -28.22 L 218.62 0 L 211.94 0 L 211.94 -28.22 Z" stroke-linecap="round" />
</g>
</g>
</g>
<g transform="matrix(1.9211538461538462 0 0 1.9211538461538462 639.2842951472356 747.8764232088961)" id="tagline-2f499dfc-e9d8-48bd-ab5a-3e34a569e35b-logo"  >
<g style=""  paint-order="stroke"   >
		<g transform="matrix(1 0 0 1 0 0)" id="tagline-2f499dfc-e9d8-48bd-ab5a-3e34a569e35b-logo-path-0"  >
<path style="stroke: none; stroke-width: 0; stroke-dasharray: none; stroke-linecap: butt; stroke-dashoffset: 0; stroke-linejoin: miter; stroke-miterlimit: 4; fill: rgb(16,65,112); fill-rule: nonzero; opacity: 1;"  paint-order="stroke"  transform=" translate(-141.365, 11.555)" d="M 1.55 -16.27 L 1.55 -16.27 Q 1.55 -18.16 2.22 -19.46 Q 2.88 -20.75 3.89 -21.57 Q 4.9 -22.38 6.07 -22.74 Q 7.25 -23.11 8.27 -23.11 L 8.27 -23.11 L 22.53 -23.11 L 22.53 -18.92 L 8.27 -18.92 Q 7.07 -18.92 6.41 -18.19 Q 5.74 -17.47 5.74 -16.27 L 5.74 -16.27 Q 5.74 -15.07 6.41 -14.36 Q 7.07 -13.66 8.27 -13.66 L 8.27 -13.66 L 17.9 -13.66 L 17.93 -13.66 Q 18.61 -13.65 19.37 -13.48 Q 20.13 -13.31 20.87 -12.96 Q 21.62 -12.6 22.3 -12.06 Q 22.98 -11.52 23.5 -10.76 Q 24.02 -10.01 24.33 -9.02 Q 24.64 -8.04 24.64 -6.8 L 24.64 -6.8 Q 24.64 -5.56 24.32 -4.57 Q 24.01 -3.58 23.49 -2.82 Q 22.98 -2.06 22.28 -1.53 Q 21.59 -1 20.85 -0.66 Q 20.11 -0.32 19.34 -0.16 Q 18.58 0 17.9 0 L 17.9 0 L 1.74 0 L 1.74 -4.19 L 17.9 -4.19 Q 19.11 -4.19 19.78 -4.9 Q 20.45 -5.61 20.45 -6.8 L 20.45 -6.8 Q 20.45 -7.38 20.27 -7.86 Q 20.09 -8.35 19.76 -8.7 Q 19.43 -9.06 18.96 -9.25 Q 18.48 -9.44 17.9 -9.44 L 17.9 -9.44 L 8.27 -9.44 Q 7.25 -9.44 6.07 -9.8 Q 4.9 -10.17 3.89 -10.97 Q 2.88 -11.78 2.22 -13.08 Q 1.55 -14.39 1.55 -16.27 Z M 38.61 0 L 34.42 0 L 34.42 -23.11 L 38.61 -23.11 L 38.61 0 Z M 53.97 0 L 49.78 0 L 49.78 -21.32 Q 49.78 -21.96 50.14 -22.49 Q 50.5 -23.01 51.07 -23.27 L 51.07 -23.27 Q 51.47 -23.43 51.87 -23.43 L 51.87 -23.43 Q 52.08 -23.43 52.29 -23.4 L 52.29 -23.4 Q 52.92 -23.27 53.37 -22.8 L 53.37 -22.8 L 68.68 -6.83 L 68.68 -23.11 L 72.87 -23.11 L 72.87 -1.79 Q 72.87 -1.34 72.7 -0.95 Q 72.53 -0.56 72.25 -0.28 Q 71.97 0 71.58 0.16 Q 71.19 0.32 70.76 0.32 L 70.76 0.32 Q 70.37 0.32 69.98 0.18 Q 69.58 0.03 69.27 -0.29 L 69.27 -0.29 L 53.97 -16.27 L 53.97 0 Z M 83.7 -5.88 L 83.7 -5.88 L 83.7 -17.23 Q 83.7 -17.81 83.84 -18.47 Q 83.97 -19.14 84.26 -19.8 Q 84.55 -20.45 85.02 -21.04 Q 85.49 -21.64 86.14 -22.1 Q 86.79 -22.56 87.65 -22.83 Q 88.5 -23.11 89.58 -23.11 L 89.58 -23.11 L 104.69 -23.11 L 104.69 -18.92 L 89.58 -18.92 Q 88.76 -18.92 88.32 -18.48 Q 87.89 -18.05 87.89 -17.19 L 87.89 -17.19 L 87.89 -5.88 Q 87.89 -5.08 88.33 -4.63 Q 88.77 -4.19 89.58 -4.19 L 89.58 -4.19 L 104.69 -4.19 L 104.69 0 L 89.58 0 Q 89 0 88.33 -0.14 Q 87.66 -0.27 87.01 -0.56 Q 86.36 -0.85 85.76 -1.31 Q 85.16 -1.77 84.71 -2.43 Q 84.25 -3.08 83.97 -3.94 Q 83.7 -4.8 83.7 -5.88 Z M 114.83 -5.88 L 114.83 -5.88 L 114.83 -21 Q 114.83 -21.43 114.99 -21.82 Q 115.15 -22.2 115.44 -22.49 Q 115.72 -22.78 116.1 -22.95 Q 116.49 -23.11 116.94 -23.11 L 116.94 -23.11 L 135.81 -23.11 L 135.81 -18.92 L 119.02 -18.92 L 119.02 -5.88 Q 119.02 -5.06 119.46 -4.62 Q 119.89 -4.19 120.73 -4.19 L 120.73 -4.19 L 135.81 -4.19 L 135.81 0 L 120.7 0 Q 119.83 0 118.79 -0.31 Q 117.76 -0.61 116.89 -1.31 Q 116.01 -2.01 115.42 -3.13 Q 114.83 -4.25 114.83 -5.88 Z M 133.93 -9.44 L 120.7 -9.44 L 120.7 -13.66 L 133.93 -13.66 L 133.93 -9.44 Z M 183.62 0 L 162.4 0 L 162.4 -7.75 Q 162.4 -8.35 162.54 -9.02 Q 162.68 -9.68 162.97 -10.34 Q 163.26 -11.01 163.71 -11.6 Q 164.17 -12.2 164.83 -12.66 Q 165.48 -13.12 166.33 -13.39 Q 167.19 -13.66 168.27 -13.66 L 168.27 -13.66 L 177.71 -13.66 Q 178.56 -13.66 178.97 -14.09 Q 179.38 -14.52 179.38 -15.34 L 179.38 -15.34 L 179.38 -17.19 Q 179.38 -18.05 178.97 -18.48 Q 178.55 -18.92 177.74 -18.92 L 177.74 -18.92 L 164.29 -18.92 L 164.29 -23.11 L 177.74 -23.11 Q 178.8 -23.11 179.66 -22.83 Q 180.51 -22.56 181.17 -22.1 Q 181.82 -21.64 182.29 -21.04 Q 182.75 -20.45 183.05 -19.8 Q 183.35 -19.14 183.49 -18.47 Q 183.62 -17.81 183.62 -17.23 L 183.62 -17.23 L 183.62 -15.34 Q 183.62 -13.71 183.03 -12.59 Q 182.45 -11.47 181.56 -10.77 Q 180.67 -10.07 179.65 -9.76 Q 178.63 -9.44 177.74 -9.44 L 177.74 -9.44 L 168.27 -9.44 Q 167.75 -9.44 167.44 -9.3 Q 167.14 -9.15 166.97 -8.91 Q 166.8 -8.67 166.72 -8.36 Q 166.64 -8.06 166.59 -7.75 L 166.59 -7.75 L 166.59 -4.19 L 183.62 -4.19 L 183.62 0 Z M 193.63 -9.67 L 193.63 -9.67 L 193.63 -13.44 Q 193.63 -15.57 194.43 -17.34 Q 195.23 -19.11 196.56 -20.39 Q 197.9 -21.67 199.65 -22.39 Q 201.4 -23.11 203.3 -23.11 L 203.3 -23.11 L 210.86 -23.11 Q 212.11 -23.11 213.32 -22.78 Q 214.53 -22.46 215.6 -21.86 Q 216.67 -21.25 217.58 -20.4 Q 218.48 -19.55 219.14 -18.47 Q 219.8 -17.39 220.16 -16.12 Q 220.52 -14.86 220.52 -13.44 L 220.52 -13.44 L 220.52 -9.67 Q 220.52 -8.25 220.16 -6.99 Q 219.8 -5.72 219.14 -4.64 Q 218.48 -3.56 217.58 -2.71 Q 216.67 -1.85 215.6 -1.25 Q 214.53 -0.64 213.32 -0.32 Q 212.11 0 210.86 0 L 210.86 0 L 203.3 0 Q 202.03 0 200.82 -0.32 Q 199.61 -0.64 198.54 -1.25 Q 197.47 -1.85 196.56 -2.71 Q 195.66 -3.56 195.01 -4.64 Q 194.36 -5.72 193.99 -6.99 Q 193.63 -8.25 193.63 -9.67 Z M 197.82 -13.44 L 197.82 -9.67 Q 197.82 -8.41 198.27 -7.4 Q 198.72 -6.38 199.48 -5.66 Q 200.24 -4.95 201.23 -4.56 Q 202.22 -4.17 203.3 -4.19 L 203.3 -4.19 L 210.86 -4.19 Q 212.1 -4.19 213.1 -4.6 Q 214.11 -5.01 214.82 -5.74 Q 215.53 -6.46 215.92 -7.47 Q 216.3 -8.48 216.3 -9.67 L 216.3 -9.67 L 216.3 -13.44 Q 216.3 -14.68 215.85 -15.69 Q 215.4 -16.71 214.65 -17.43 Q 213.9 -18.16 212.92 -18.55 Q 211.94 -18.93 210.86 -18.92 L 210.86 -18.92 L 203.3 -18.92 Q 202.25 -18.93 201.26 -18.55 Q 200.27 -18.18 199.5 -17.46 Q 198.74 -16.74 198.28 -15.72 Q 197.82 -14.7 197.82 -13.44 L 197.82 -13.44 Z M 199.35 -7.37 Q 199.27 -7.78 199.34 -8.18 Q 199.42 -8.57 199.64 -8.92 Q 199.87 -9.27 200.24 -9.51 L 200.24 -9.51 L 211.58 -17.06 Q 211.94 -17.31 212.35 -17.39 Q 212.76 -17.47 213.15 -17.39 Q 213.55 -17.31 213.89 -17.08 Q 214.24 -16.85 214.48 -16.5 L 214.48 -16.5 Q 214.72 -16.15 214.8 -15.73 Q 214.88 -15.32 214.8 -14.93 Q 214.72 -14.53 214.49 -14.19 Q 214.26 -13.84 213.89 -13.6 L 213.89 -13.6 L 202.57 -6.04 Q 202.3 -5.83 202.01 -5.75 Q 201.72 -5.67 201.41 -5.67 L 201.41 -5.67 Q 200.9 -5.67 200.43 -5.91 Q 199.96 -6.16 199.67 -6.61 L 199.67 -6.61 Q 199.43 -6.96 199.35 -7.37 Z M 251.53 0 L 230.31 0 L 230.31 -7.75 Q 230.31 -8.35 230.44 -9.02 Q 230.58 -9.68 230.87 -10.34 Q 231.16 -11.01 231.62 -11.6 Q 232.08 -12.2 232.73 -12.66 Q 233.38 -13.12 234.24 -13.39 Q 235.09 -13.66 236.17 -13.66 L 236.17 -13.66 L 245.61 -13.66 Q 246.47 -13.66 246.88 -14.09 Q 247.29 -14.52 247.29 -15.34 L 247.29 -15.34 L 247.29 -17.19 Q 247.29 -18.05 246.87 -18.48 Q 246.45 -18.92 245.65 -18.92 L 245.65 -18.92 L 232.19 -18.92 L 232.19 -23.11 L 245.65 -23.11 Q 246.71 -23.11 247.56 -22.83 Q 248.42 -22.56 249.07 -22.1 Q 249.72 -21.64 250.19 -21.04 Q 250.66 -20.45 250.96 -19.8 Q 251.25 -19.14 251.39 -18.47 Q 251.53 -17.81 251.53 -17.23 L 251.53 -17.23 L 251.53 -15.34 Q 251.53 -13.71 250.94 -12.59 Q 250.35 -11.47 249.47 -10.77 Q 248.58 -10.07 247.56 -9.76 Q 246.53 -9.44 245.65 -9.44 L 245.65 -9.44 L 236.17 -9.44 Q 235.66 -9.44 235.35 -9.3 Q 235.04 -9.15 234.87 -8.91 Q 234.71 -8.67 234.62 -8.36 Q 234.54 -8.06 234.5 -7.75 L 234.5 -7.75 L 234.5 -4.19 L 251.53 -4.19 L 251.53 0 Z M 275.3 0 L 261.86 0 L 261.86 -4.19 L 275.3 -4.19 Q 276.15 -4.19 276.56 -4.62 Q 276.97 -5.06 276.97 -5.88 L 276.97 -5.88 L 276.97 -9.44 L 261.86 -9.44 L 261.86 -13.66 L 276.97 -13.66 L 276.97 -17.19 Q 276.97 -18.92 275.3 -18.92 L 275.3 -18.92 L 261.86 -18.92 L 261.86 -23.11 L 275.3 -23.11 Q 276.38 -23.11 277.23 -22.83 Q 278.08 -22.56 278.74 -22.1 Q 279.39 -21.64 279.86 -21.04 Q 280.32 -20.45 280.61 -19.8 Q 280.9 -19.14 281.04 -18.47 Q 281.18 -17.81 281.18 -17.23 L 281.18 -17.23 L 281.18 -5.88 Q 281.18 -4.25 280.59 -3.13 Q 280 -2.01 279.12 -1.31 Q 278.25 -0.61 277.21 -0.31 Q 276.18 0 275.3 0 L 275.3 0 Z" stroke-linecap="round" />
</g>
</g>
</g>
<g transform="matrix(1.9211538461538462 0 0 1.9211538461538462 640.0205998722956 398.49492512029036)" id="tagline-61814566-b32d-4f04-9636-f909f5a91af6-logo"  >
<g style=""  paint-order="stroke"   >
		<g transform="matrix(1 0 0 1 0 0)" id="tagline-61814566-b32d-4f04-9636-f909f5a91af6-logo-path-0"  >
<path style="stroke: none; stroke-width: 0; stroke-dasharray: none; stroke-linecap: butt; stroke-dashoffset: 0; stroke-linejoin: miter; stroke-miterlimit: 4; fill: rgb(16,65,112); fill-rule: nonzero; opacity: 1;"  paint-order="stroke"  transform=" translate(-26.24, 21.355)" d="M 3.16 -17.28 L 3.16 -17.28 L 3.16 -25.44 Q 3.16 -29.31 4.51 -32.6 Q 5.87 -35.89 8.25 -38.26 Q 10.63 -40.63 13.91 -41.97 Q 17.19 -43.31 21.03 -43.31 L 21.03 -43.31 L 31.51 -43.31 Q 35.35 -43.31 38.62 -41.97 Q 41.88 -40.63 44.26 -38.26 Q 46.64 -35.89 47.98 -32.6 Q 49.32 -29.31 49.32 -25.44 L 49.32 -25.44 L 49.32 -17.28 Q 49.32 -13.37 47.98 -10.1 Q 46.64 -6.82 44.26 -4.44 Q 41.88 -2.06 38.62 -0.73 Q 35.35 0.6 31.51 0.6 L 31.51 0.6 L 21.03 0.6 Q 17.19 0.6 13.91 -0.73 Q 10.63 -2.06 8.25 -4.44 Q 5.87 -6.82 4.51 -10.1 Q 3.16 -13.37 3.16 -17.28 Z M 10.9 -25.44 L 10.9 -17.28 Q 10.9 -14.98 11.63 -13.12 Q 12.36 -11.26 13.7 -9.93 Q 15.04 -8.61 16.9 -7.88 Q 18.76 -7.15 21.03 -7.15 L 21.03 -7.15 L 31.45 -7.15 Q 33.72 -7.15 35.58 -7.88 Q 37.44 -8.61 38.78 -9.93 Q 40.12 -11.26 40.85 -13.12 Q 41.58 -14.98 41.58 -17.28 L 41.58 -17.28 L 41.58 -25.44 Q 41.58 -27.73 40.85 -29.59 Q 40.12 -31.45 38.8 -32.78 Q 37.47 -34.1 35.61 -34.83 Q 33.75 -35.56 31.51 -35.56 L 31.51 -35.56 L 21.03 -35.56 Q 18.76 -35.56 16.9 -34.83 Q 15.04 -34.1 13.7 -32.78 Q 12.36 -31.45 11.63 -29.59 Q 10.9 -27.73 10.9 -25.44 L 10.9 -25.44 Z" stroke-linecap="round" />
</g>
</g>
</g>
</svg>